<?xml version="1.0" encoding="UTF-8" standalone="no"?>
<!-- Created with Inkscape (http://www.inkscape.org/) -->

<svg
   width="85.009666mm"
   height="17.960541mm"
   viewBox="0 0 85.009666 17.960541"
   version="1.1"
   id="svg5"
   xml:space="preserve"
   xmlns="http://www.w3.org/2000/svg"
   xmlns:svg="http://www.w3.org/2000/svg"><defs
     id="defs2"><rect
       x="148.49242"
       y="154.85638"
       width="435.22421"
       height="143.54268"
       id="rect10572" /></defs><g
     id="layer2"
     transform="translate(-52.264611,-103.02214)"><rect
       style="fill:none;fill-opacity:0.407407;stroke:none;stroke-width:0.25496;stroke-opacity:1"
       id="rect10560"
       width="85.009666"
       height="17.960541"
       x="52.26461"
       y="103.02213" /></g><g
     id="layer1"
     transform="translate(-52.264611,-103.02214)"><path
       id="path10562"
       style="fill:#09a831;fill-opacity:1;stroke:none;stroke-width:0.264583;stroke-opacity:1"
       d="m 105.97647,105.26851 c -1.28902,-0.005 -2.73054,0.26749 -4.29689,0.8661 14.67059,-2.35642 10.83163,14.88111 2.15439,11.41894 -0.30133,-0.17643 -0.1927,-0.40778 0.0408,-0.57568 0.5231,-0.37612 2.15062,-1.54116 2.50218,-2.13217 0.13302,-0.76013 0.0269,-1.36064 -0.79789,-1.59628 -0.78098,-0.21485 -1.20855,-0.0908 -1.99523,-0.0434 -0.72248,-0.0132 -1.26836,-0.2857 -1.89962,-0.40721 -0.85516,-0.0798 -1.05475,0.40477 -1.04335,1.06608 0.0205,0.47349 0.0614,0.93574 0.17053,1.40922 0.0796,0.47617 -0.12329,1.00012 -0.13642,1.51257 0.002,0.75063 0.056,0.97942 0.58239,1.3994 5.86065,3.11274 10.87858,0.43177 11.4422,-4.56923 0.53975,-4.7892 -2.11945,-8.33217 -6.72311,-8.34833 z m -5.81204,3.14503 c -0.15529,4.8e-4 -0.317477,0.0348 -0.484727,0.11059 -1.195283,0.66567 0.803757,3.74163 1.955437,3.07939 0.74845,-0.52506 -0.097,-3.19421 -1.47071,-3.18998 z m 3.46542,0.30386 c -0.0647,0.002 -0.13183,0.008 -0.20154,0.0191 -1.32762,0.33056 -0.33326,3.45884 0.95136,3.12022 0.91937,-0.33314 0.84112,-3.17536 -0.74982,-3.13934 z m -6.137093,1.84691 c -0.228626,0.003 -0.4284,0.0856 -0.572058,0.27182 -0.982371,1.51773 2.052675,3.12756 2.754354,2.39055 0.683987,-0.8617 -1.080736,-2.6784 -2.182296,-2.66237 z m 0.146244,3.58014 c -0.520405,0.005 -0.959106,0.19991 -1.059367,0.6594 -0.238034,1.79219 2.827965,1.82634 3.146579,0.85989 0.19752,-0.84916 -1.09371,-1.52948 -2.087212,-1.51929 z" /><text
       xml:space="preserve"
       transform="matrix(0.26458333,0,0,0.26458333,15.610417,62.243229)"
       id="text10570"
       style="font-style:normal;font-variant:normal;font-weight:normal;font-stretch:normal;font-size:54.6667px;font-family:Impact;-inkscape-font-specification:Impact;white-space:pre;shape-inside:url(#rect10572);fill:#ff7523;fill-opacity:1;stroke:none;stroke-opacity:1"><tspan
         x="148.49219"
         y="209.58133"
         id="tspan6518">PETS <tspan
   style="fill:#09a831"
   id="tspan6512">W </tspan><tspan
   style="font-size:32px;fill:#09a831"
   id="tspan6514"> </tspan><tspan
   style="fill:#09a831"
   id="tspan6516">     RLD</tspan> </tspan></text></g></svg>
